# xmcd
#
# Track frame offsets: 
#        300
#        12748
#        24456
#        37909
#        48722
#        62520
#        74741
#        88913
#        100924
#        113842
#        125393
#        139635
#        150446
#        164717
#        178701
#        191725
#        204598
#        215391
#        232050
#        255512
#
# Disc length: 3603 seconds
#
# Revision: 5
# Processed by: cddbd v1.5.2PL0 Copyright (c) Steve Scherf et al.
# Submitted via: ExactAudioCopy v1.0b1
#
DISCID=270e0f14
DTITLE=Otis Rush - 1956 - 1958 Cobra Recordings
DYEAR=1989
DGENRE=Chicago Blues
TTITLE0=Double Trouble
TTITLE1=Jump Sister Bessie
TTITLE2=Checking On My Baby
TTITLE3=Sit Down
TTITLE4=Love That Woman
TTITLE5=My Baby Is A Good 'Un
TTITLE6=If You Were Mine
TTITLE7=All Your Love
TTITLE8=It Takes Time
TTITLE9=Violent Love
TTITLE10=I Can't Quit You Baby
TTITLE11=Little Red Rooster
TTITLE12=My Love Will Never Die
TTITLE13=Groaning The Blues
TTITLE14=Three Times A Fool
TTITLE15=She's A Good 'Un
TTITLE16=Keep On Loving Me Baby
TTITLE17=I Can't Quit You Baby
TTITLE18=Double Trouble
TTITLE19=She's A Good 'Un
EXTD=
EXTT0=
EXTT1=
EXTT2=
EXTT3=
EXTT4=
EXTT5=
EXTT6=
EXTT7=
EXTT8=
EXTT9=
EXTT10=
EXTT11=
EXTT12=
EXTT13=
EXTT14=
EXTT15=
EXTT16=
EXTT17=
EXTT18=
EXTT19=
PLAYORDER=
